<?xml version="1.0" encoding="utf-8"?>
<!-- Generator: Adobe Illustrator 26.0.2, SVG Export Plug-In . SVG Version: 6.00 Build 0)  -->
<svg version="1.1"
	 id="svg32847" xmlns:cc="http://creativecommons.org/ns#" xmlns:dc="http://purl.org/dc/elements/1.1/" xmlns:inkscape="http://www.inkscape.org/namespaces/inkscape" xmlns:rdf="http://www.w3.org/1999/02/22-rdf-syntax-ns#" xmlns:sodipodi="http://sodipodi.sourceforge.net/DTD/sodipodi-0.dtd"
	 xmlns="http://www.w3.org/2000/svg" xmlns:xlink="http://www.w3.org/1999/xlink" x="0px" y="0px" viewBox="0 0 188 165.4"
	 style="enable-background:new 0 0 188 165.4;" xml:space="preserve">
<style type="text/css">
	.st0{fill:#FFFFFF;stroke:#000000;stroke-width:5;stroke-linecap:round;stroke-linejoin:round;stroke-miterlimit:4.9244;}
	.st1{fill:none;stroke:#000000;stroke-width:5;stroke-linecap:round;stroke-linejoin:round;stroke-miterlimit:4.9244;}
</style>
<sodipodi:namedview  bordercolor="#666666" borderopacity="1" gridtolerance="10" guidetolerance="10" id="namedview35" inkscape:current-layer="svg32847" inkscape:cx="372.04724" inkscape:cy="-182.85615" inkscape:pageopacity="0" inkscape:pageshadow="2" inkscape:window-height="480" inkscape:window-maximized="0" inkscape:window-width="640" inkscape:window-x="0" inkscape:window-y="0" inkscape:zoom="0.22425739" objecttolerance="10" pagecolor="#ffffff" showgrid="false">
	</sodipodi:namedview>
<g id="layer1" transform="translate(-169.67 -397.84)">
	<g id="g5439" transform="matrix(.62977 .77678 -.77678 .62977 1980.2 -124.31)">
		<g id="g3915-6-1-6-3-8-9-4" transform="matrix(1.2311,0,0,1.2311,-513.75,545.62)">
			<path id="path3894-6-1-0-5-5-2-9" inkscape:connector-curvature="0" class="st0" d="M-55.5,1015.3c3.7,6.1-0.5,10-6.2,12.9
				c-8,4.1-27.9,2.1-34.7-2c-6.2-3.8-9-9.3-6-14.2"/>
			<path id="path3112-2-8-6-8-2-9-8" inkscape:connector-curvature="0" class="st0" d="M-148.6,975c-4,8,9.8,13,25,15.8
				c5.9,1.1,17.5,21,31.3,25.7c9,3.1,29.3,3.8,36.5-1.4c12.3-9,18.5-20.7,21.3-35.1c1-5.1,1.2-10.9,1-15.7
				c-1-15.7,13-53.7,11.9-57.7c-3-11.1-15.9-4.6-18.6,2.6c-1.3,3.5-13.9,27.8-13.9,23.1c-0.2-11.4,1-25.2,2.8-38.2
				c2.8-19.4-24.3-14.5-26.7,3.7c-1.1,8.5-3.1,15.5-5.1,34.6c-3.1-10.3-8.4-25-10.2-35.2c-2.9-16.8-27.1-6.7-23,13.8
				c2.7,14,10.4,38.6,9.2,62.8C-116.6,965.8-136.4,950.8-148.6,975L-148.6,975z"/>
			<path id="path3882-6-1-33-9-9-7-9" inkscape:connector-curvature="0" d="M-85.4,931.9c3,12.7,7.5,18.5,9.1,21.4
				c-2.1-7.9-2.9-9.8-4.5-18.4c-0.3-1.5-0.4-3.2-0.1-5.3L-85.4,931.9z"/>
			<path id="path3884-6-1-2-9-6-6-0" inkscape:connector-curvature="0" d="M-56.2,932.4c0.1,7.6,2.1,16.8,5,22.5
				c-0.1-4.2-0.4-11.3-0.7-17.7c-0.1-1.7,0.3-3.3,1.7-5.3C-52.2,932.5-54.2,932.3-56.2,932.4L-56.2,932.4z"/>
			<path id="path3886-8-5-4-3-7-0-8" inkscape:connector-curvature="0" class="st1" d="M-65.3,1007.7c4-9.7,4-12.5,5.2-17.4"/>
			<path id="path3888-4-4-9-8-4-7-4" inkscape:connector-curvature="0" class="st1" d="M-74.7,1008.4c1.7-11.5,1.4-17.2,1.9-24.9"/>
			<path id="path3890-1-8-5-1-8-9-7" inkscape:connector-curvature="0" class="st1" d="M-85.9,1008.9c0.1-8-0.6-11.8-1-16.8"/>
		</g>
	</g>
</g>
</svg>
