<?xml version="1.0" encoding="utf-8"?>
<!-- Generator: Adobe Illustrator 26.0.2, SVG Export Plug-In . SVG Version: 6.00 Build 0)  -->
<svg version="1.1"
	 id="svg32847" xmlns:cc="http://creativecommons.org/ns#" xmlns:dc="http://purl.org/dc/elements/1.1/" xmlns:inkscape="http://www.inkscape.org/namespaces/inkscape" xmlns:rdf="http://www.w3.org/1999/02/22-rdf-syntax-ns#" xmlns:sodipodi="http://sodipodi.sourceforge.net/DTD/sodipodi-0.dtd"
	 xmlns="http://www.w3.org/2000/svg" xmlns:xlink="http://www.w3.org/1999/xlink" x="0px" y="0px" viewBox="0 0 145.7 133"
	 style="enable-background:new 0 0 145.7 133;" xml:space="preserve">
<style type="text/css">
	.st0{fill:#FFFFFF;stroke:#000000;stroke-width:4.9998;stroke-linecap:round;stroke-linejoin:round;stroke-miterlimit:4.9242;}
	.st1{fill:none;stroke:#000000;stroke-width:4.9998;stroke-linecap:round;stroke-linejoin:round;stroke-miterlimit:4.9242;}
</style>
<sodipodi:namedview bordercolor="#666666" borderopacity="1" gridtolerance="10" guidetolerance="10" id="namedview35" inkscape:current-layer="svg32847" inkscape:cx="372.04724" inkscape:cy="-182.85615" inkscape:pageopacity="0" inkscape:pageshadow="2" inkscape:window-height="480" inkscape:window-maximized="0" inkscape:window-width="640" inkscape:window-x="0" inkscape:window-y="0" inkscape:zoom="0.22425739" objecttolerance="10" pagecolor="#ffffff" showgrid="false">
	</sodipodi:namedview>
<g class="rock" id="layer1" transform="translate(-169.67 -397.84)">
	<g id="g32290" transform="matrix(.19511 1.2155 1.2155 -.19511 -740.71 627.61)">
		<path id="path32292" inkscape:connector-curvature="0" class="st0" d="M16.5,851.4c3.7,6.1-0.5,10-6.2,12.9
			c-8,4.1-27.9,2.1-34.7-2c-6.2-3.8-9-9.3-6-14.2"/>
		<path id="path32294" inkscape:connector-curvature="0" class="st0" d="M-51.7,806.5c-0.9,15.7,13.9,40.3,31.4,46.1
			c9,2.9,29.3,3.8,36.5-1.5c12.3-9,18.5-20.7,21.3-35.1c1-5.1,1.2-10.9,0.9-15.7c-1-19.6-7.2-34.2-20.6-31.9
			c-4.1-16.1-28.9-12.2-29,0.1c-12.7-14.2-31.1-1-23.5,16.1C-37.5,786.7-50.8,790.2-51.7,806.5z"/>
		<path id="path32296" inkscape:connector-curvature="0" d="M-9.1,769c3.9,12.4,2.4,17.6,2.5,21c-2.3-7.9-2.6-9.9-5.7-18.1
			c-0.5-1.4-1.2-2.8-2.7-4.4l6.1-0.9C-8.9,766.3-9.3,768.1-9.1,769L-9.1,769z"/>
		<path id="path32298" inkscape:connector-curvature="0" d="M19.5,766.8c1.5,7.5,2.5,16.9,1,23.1c-0.8-4.1-3.5-14.7-4.5-20.9
			C15.9,768.9,15.9,769,19.5,766.8L19.5,766.8z"/>
		<path id="path32300" inkscape:connector-curvature="0" class="st1" d="M6.6,843.8c4-9.7,4-12.5,5.2-17.4"/>
		<path id="path32302" inkscape:connector-curvature="0" class="st1" d="M-2.8,844.5c1.7-11.5,1.4-17.2,1.9-24.9"/>
		<path id="path32304" inkscape:connector-curvature="0" class="st1" d="M-14,845c0.1-8-0.6-11.8-1-16.8"/>
		<path id="path32306" inkscape:connector-curvature="0" d="M-37,783.5c3.9,16.8-1.2,23.4-4.6,31.9c5.1-8.8,12.1-11.8,8.8-31.4
			L-37,783.5L-37,783.5z"/>
	</g>
</g>
</svg>
