<?xml version="1.0" encoding="utf-8"?>
<!-- Generator: Adobe Illustrator 26.0.2, SVG Export Plug-In . SVG Version: 6.00 Build 0)  -->
<svg version="1.1"
	 id="svg32847" xmlns:cc="http://creativecommons.org/ns#" xmlns:dc="http://purl.org/dc/elements/1.1/" xmlns:inkscape="http://www.inkscape.org/namespaces/inkscape" xmlns:rdf="http://www.w3.org/1999/02/22-rdf-syntax-ns#" xmlns:sodipodi="http://sodipodi.sourceforge.net/DTD/sodipodi-0.dtd"
	 xmlns="http://www.w3.org/2000/svg" xmlns:xlink="http://www.w3.org/1999/xlink" x="0px" y="0px" viewBox="0 0 191 134.9"
	 style="enable-background:new 0 0 191 134.9;" xml:space="preserve">
<style type="text/css">
	.st0{fill:#FFFFFF;stroke:#000000;stroke-width:4.9999;stroke-linecap:round;stroke-linejoin:round;stroke-miterlimit:4.9243;}
	.st1{fill:none;stroke:#000000;stroke-width:4.9999;stroke-linecap:round;stroke-linejoin:round;stroke-miterlimit:4.9243;}
</style>
<sodipodi:namedview  bordercolor="#666666" borderopacity="1" gridtolerance="10" guidetolerance="10" id="namedview35" inkscape:current-layer="svg32847" inkscape:cx="372.04724" inkscape:cy="-182.85615" inkscape:pageopacity="0" inkscape:pageshadow="2" inkscape:window-height="480" inkscape:window-maximized="0" inkscape:window-width="640" inkscape:window-x="0" inkscape:window-y="0" inkscape:zoom="0.22425739" objecttolerance="10" pagecolor="#ffffff" showgrid="false">
	</sodipodi:namedview>
<g id="layer1" transform="translate(-169.67 -397.84)">
	<g id="imagebot_10" transform="matrix(-.46644 1.1393 -1.1393 -.46644 1440.2 856.09)">
		<path id="imagebot_18" inkscape:connector-curvature="0" class="st0" d="M89.5,1065.9c3.7,6.1-0.5,10-6.2,12.9
			c-8,4.1-27.9,2.1-34.7-2c-6.2-3.8-9-9.3-6-14.2"/>
		<path id="imagebot_17" inkscape:connector-curvature="0" class="st0" d="M21.4,1021c-0.9,15.7,13.9,40.3,31.4,46.1
			c9,2.9,29.3,3.8,36.5-1.5c12.3-9,18.5-20.7,21.3-35.1c1-5.1,1.2-10.9,0.9-15.7c-1.3-17.6-14.8-27.9-20.6-31.9
			c-0.2-11.5,1-25.2,2.8-38.2c2.8-19.4-24.3-14.5-26.7,3.7c-1.1,8.5-3.1,15.5-5.1,34.6c-3.1-10.3-8.4-25-10.2-35.2
			c-2.9-16.8-27.1-6.7-23,13.8c2.7,14,7.1,24.2,9.7,37.5C35.5,1001.2,22.2,1004.7,21.4,1021L21.4,1021z"/>
		<path id="imagebot_16" inkscape:connector-curvature="0" d="M59.6,982.5c3,12.7,7.5,18.5,9.1,21.5c-2.1-7.9-2.9-9.9-4.5-18.5
			c-0.3-1.5-0.4-3.2-0.1-5.3C64.1,980.2,59.6,982.5,59.6,982.5z"/>
		<path id="imagebot_15" inkscape:connector-curvature="0" d="M88.8,983c0.1,7.6,2.1,16.8,5,22.5c-0.3-8.3-0.6-14.8-1-22.7
			C92.7,982.8,90.8,983,88.8,983L88.8,983z"/>
		<path id="imagebot_14" inkscape:connector-curvature="0" class="st1" d="M79.6,1058.3c4-9.7,4-12.5,5.2-17.4"/>
		<path id="imagebot_13" inkscape:connector-curvature="0" class="st1" d="M70.3,1059c1.7-11.5,1.4-17.2,1.9-24.9"/>
		<path id="imagebot_12" inkscape:connector-curvature="0" class="st1" d="M59,1059.5c0.1-8-0.6-11.8-1-16.8"/>
		<path id="imagebot_11" inkscape:connector-curvature="0" d="M36,998c3.9,16.8-1.2,23.4-4.6,31.9c5.1-8.8,12.1-11.8,8.8-31.4
			L36,998L36,998z"/>
	</g>
</g>
</svg>
